<?xml version="1.0" standalone="no"?>
<!DOCTYPE svg PUBLIC "-//W3C//DTD SVG 20010904//EN"
 "http://www.w3.org/TR/2001/REC-SVG-20010904/DTD/svg10.dtd">
<svg version="1.0" xmlns="http://www.w3.org/2000/svg"
 width="512.000000pt" height="512.000000pt" viewBox="0 0 512.000000 512.000000"
 preserveAspectRatio="xMidYMid meet">

<g transform="translate(0.000000,512.000000) scale(0.100000,-0.100000)"
fill="#000000" stroke="none">
<path d="M2375 5074 c-609 -50 -1170 -307 -1596 -733 -391 -392 -628 -869
-716 -1441 -21 -141 -24 -509 -5 -645 83 -587 323 -1078 721 -1476 674 -673
1663 -908 2571 -609 1320 434 2036 1856 1600 3180 -299 912 -1083 1566 -2042
1705 -102 15 -436 27 -533 19z m465 -135 c928 -108 1714 -757 2003 -1656 75
-230 109 -459 109 -723 0 -200 -9 -297 -48 -489 -71 -353 -266 -757 -503
-1041 -39 -47 -75 -86 -81 -88 -5 -2 -10 7 -10 21 0 46 -48 212 -88 304 -107
246 -334 499 -584 652 -115 69 -255 136 -391 184 -14 5 -4 20 58 79 103 98
166 183 230 313 128 258 149 545 60 816 -122 368 -445 651 -825 723 -106 21
-304 21 -410 0 -269 -51 -526 -215 -685 -438 -62 -87 -139 -253 -165 -355 -96
-378 13 -764 293 -1044 49 -49 87 -90 85 -91 -2 -1 -32 -13 -68 -25 -36 -13
-114 -48 -173 -77 -441 -219 -738 -573 -822 -983 -9 -41 -18 -77 -20 -79 -8
-9 -154 175 -235 295 -382 574 -499 1256 -330 1924 155 608 566 1147 1124
1474 434 254 965 364 1476 304z m-174 -1019 c408 -51 729 -334 830 -730 29
-114 27 -345 -4 -459 -97 -355 -386 -630 -742 -703 -122 -25 -315 -21 -432 10
-274 73 -508 269 -629 526 -67 144 -82 217 -83 401 -1 137 2 172 22 244 99
363 401 642 758 700 145 24 171 25 280 11z m-402 -1994 c234 -68 500 -49 736
53 l88 38 104 -34 c317 -102 618 -314 788 -555 124 -176 218 -438 208 -580 -3
-39 -9 -48 -88 -116 -277 -240 -667 -433 -1045 -516 -303 -66 -687 -66 -990 0
-378 83 -768 276 -1045 516 -79 69 -85 77 -88 116 -7 97 45 286 118 432 157
310 486 574 878 704 l103 34 73 -34 c40 -18 112 -45 160 -58z"/>
</g>
</svg>
